# xmcd
#
# Track frame offsets: 
#        150
#        5334
#        32801
#        50623
#        53623
#        75018
#        96465
#        125345
#        147339
#        167613
#
# Disc length: 2547 seconds
#
# Revision: 0
# Processed by: cddbd v1.5.2PL0 Copyright (c) Steve Scherf et al.
# Submitted via: ExactAudioCopy v0.99pb4
#
DISCID=7509f10a
DTITLE=The Gap Band - Gap Band VI
DYEAR=1984
DGENRE=R&B
TTITLE0=The Sun Don't Shine Everyday (Interlude)
TTITLE1=Video Junkie
TTITLE2=Weak Spot
TTITLE3=The Sun Don't Shine Everyday (Interlude)
TTITLE4=I Believe
TTITLE5=I Found My Baby
TTITLE6=Beep A Freak
TTITLE7=Don't You Leave Me
TTITLE8=Disrespect
TTITLE9=The Sun Don't Shine Everyday (Vocal)
EXTD=
EXTT0=
EXTT1=
EXTT2=
EXTT3=
EXTT4=
EXTT5=
EXTT6=
EXTT7=
EXTT8=
EXTT9=
PLAYORDER=
